<?xml version="1.0" encoding="UTF-8"?>
<svg id="Layer_2" xmlns="http://www.w3.org/2000/svg" viewBox="0 0 54.66 23.02">
  <defs>
    <style>
      .cls-1 {
        fill: #5E1675;
      }
    </style>
  </defs>
  <g id="Layer_1-2" data-name="Layer_1">
    <g>
      <polygon class="cls-1" points="23.31 2.88 21.11 2.33 20.5 6.07 22.11 6.47 23.31 2.88"/>
      <rect class="cls-1" x="20.28" y="6.49" width="1.41" height="2.12" transform="translate(8.62 26.11) rotate(-76.1)"/>
      <rect class="cls-1" x="11.68" y="6.24" width="1.41" height="2.07" transform="translate(2.57 17.77) rotate(-77.35)"/>
      <path class="cls-1" d="M13.27,3.23c.41.09.29.44.22.74-.07.3-.23.44-.5.57-.16.08-.33.15-.5.22-.31.12-.55.19-.63.54l-.11.47,1.8.4c.03-.12.05-.24.08-.36.08-.37.16-.45.52-.56.62-.2,1.09-.39,1.25-1.09.31-1.38-.82-1.72-1.93-1.97-1.13-.25-2.2-.19-2.5,1.13l-.06.25,1.76.39c.07-.32.12-.85.58-.75Z"/>
      <path class="cls-1" d="M6.87,6.44l-.42-.11.44-2.92c.02-.12-.06-.23-.17-.26l-.48-.12.16-.59c.04-.12-.04-.25-.16-.29l-.52-.15c-.06-.02-.12,0-.18.02-.05.03-.09.08-.11.14l-.17.61-.62-.16c-.11-.03-.23.03-.28.14l-1.11,2.75-.38-.1c-.13-.04-.25.04-.29.17l-.14.52c-.02.06,0,.12.02.18.03.05.08.09.14.11l4.01,1.04s.04,0,.06,0c.1,0,.2-.07.23-.18l.14-.53c.02-.06,0-.12-.02-.18-.03-.05-.08-.09-.14-.11Z"/>
      <path class="cls-1" d="M4.51,7.16s0,0,0,0c-.15-.04-.32-.02-.45.06-.14.08-.24.21-.28.37-.04.16-.02.32.06.46.08.14.21.24.37.28.05.01.1.02.15.02.27,0,.51-.18.58-.45.08-.32-.11-.65-.43-.73Z"/>
      <path class="cls-1" d="M54.28,4.63l-.6-.72-1.55-1.62h0c-.24-.31-.63-.51-1.12-.5l-1.74-.15-24.19.03c-.55-.5-1.2-.89-1.93-1.13-1.35-.43-2.79-.32-4.06.33-.66.34-1.22.8-1.67,1.36,0,0,0-.01.01-.02-.66-.9-1.57-1.59-2.66-1.93-2.04-.65-4.18,0-5.54,1.48,0,0,0,0,0,0-.61-.67-1.38-1.22-2.3-1.51C4.15-.64,1.15.9.26,3.69c-.17.53-.26,1.08-.26,1.63,0,.83.2,1.66.59,2.43.65,1.26,1.75,2.2,3.11,2.63-.32-.1-.61-.23-.9-.39l3.06,2.18-.5,1.85-.03.26,2.53,2.36-.69,2.34,2.06,1.1,1.8,1.15h.37s0,0,0,0l2.61-.02,1.65,1.8,3.29-.02.54-1.85h.64s-.02.03-.02.03l3.39-.02,1.78-3.3h1.9s3.26-.04,3.26-.04l.76,1.53.34,1.45,4.04.27,8.79-.06,1.69-5.73c.21-.72.48-1.61-.03-1.93l-.87-1.46,7.74-.06,1.69-5.73c.18-.6.04-1.12-.3-1.47ZM41.21,2.76l-2.1,7.14-3.08.02,2.1-7.14,3.08-.02ZM26.18,2.87l2.77-.02-1.39,4.72c-.08.26.05.39.31.39h.69s1.5-5.12,1.5-5.12l2.77-.02-1.5,5.11h.69c.31,0,.47-.17.55-.46l1.37-4.67,2.77-.02-1.58,5.37c-.28.97-1.32,1.77-2.29,1.78l-7,.05c-.38,0-.69-.12-.92-.33,1.17-.98,1.93-2.42,1.93-4.07,0-.95-.27-1.83-.71-2.61l.04-.13ZM17.59,4.34c.34-1.05,1.06-1.91,2.05-2.42.98-.5,2.1-.6,3.15-.26,1.05.34,1.91,1.06,2.41,2.05.31.59.46,1.24.46,1.89,0,.42-.07.85-.2,1.27-.7,2.17-3.03,3.37-5.2,2.68-2.17-.7-3.37-3.03-2.67-5.2ZM9.23,4.09c.7-2.17,3.03-3.37,5.2-2.67,1,.32,1.81,1,2.33,1.91-.11.21-.21.43-.28.66-.17.54-.25,1.08-.25,1.62,0,.73.17,1.45.45,2.1l-.06-.1c-.99,1.52-2.9,2.26-4.71,1.68-2.17-.7-3.37-3.03-2.67-5.2ZM4.06,9.26c-1.05-.34-1.91-1.06-2.41-2.05-.5-.98-.6-2.1-.26-3.15C2.08,1.88,4.41.68,6.58,1.38c.8.26,1.46.74,1.95,1.35-.17.31-.32.64-.43.99-.17.54-.25,1.08-.25,1.62,0,.91.25,1.8.68,2.58-.36.44-.8.81-1.31,1.07-.98.51-2.1.6-3.15.26ZM8.88,18.31l1.22-4.15c.08-.26-.05-.39-.31-.39l-2.51.02.76-2.6,4.25-.03c.96,0,1.53.79,1.24,1.76l-1.58,5.37-3.08.02ZM12.88,19.98l1.58-5.37,3.08-.02-1.58,5.37-3.08.02ZM20.23,18.23l-3.18.02,2.67-4.85-4.93.04.68-2.3,8.58-.06-3.82,7.15ZM26.74,15.1l-3.05.02,1.19-4.05,3.05-.02-1.19,4.05ZM31.15,15.07l-3.05.02,1.19-4.05,3.05-.02-1.19,4.05ZM41.37,12.72l-1.58,5.37-3.91.03.58-1.97h.83s.73-2.48.73-2.48c.08-.26-.05-.39-.31-.39h-.72s-2.17,4.85-2.17,4.85l-3.27.02,2.47-4.85h-1.13s.68-2.29.68-2.29l6.56-.05c.96,0,1.53.79,1.24,1.76ZM49.37,4.46l-1.58,5.37-7.26.05.59-2.01,4.18-.03.72-2.44c.08-.26-.05-.39-.3-.39h-.68s-.51,1.75-.51,1.75l-3.08.02,1.19-4.04,5.5-.04c.96,0,1.53.79,1.24,1.76Z"/>
    </g>
  </g>
</svg>
